<mxfile host="app.diagrams.net" modified="2023-05-22T15:18:20.949Z" agent="Mozilla/5.0 (Windows NT 10.0; Win64; x64) AppleWebKit/537.36 (KHTML, like Gecko) Chrome/113.0.0.0 Safari/537.36 Edg/113.0.1774.50" etag="L45mtMqYbz5TOSEBGQkp" version="21.3.2" type="device" pages="10">
  <diagram name="Page-1" id="MSpiBG_0F7izYK2sgKbB">
    <mxGraphModel dx="1379" dy="796" grid="1" gridSize="10" guides="1" tooltips="1" connect="1" arrows="1" fold="1" page="1" pageScale="1" pageWidth="850" pageHeight="1100" math="0" shadow="0">
      <root>
        <mxCell id="0" />
        <mxCell id="1" parent="0" />
        <mxCell id="FJ8fR7vCrXhes3fE69YZ-2" value="Input n" style="shape=parallelogram;perimeter=parallelogramPerimeter;whiteSpace=wrap;html=1;fixedSize=1;" parent="1" vertex="1">
          <mxGeometry x="280" y="230" width="120" height="60" as="geometry" />
        </mxCell>
        <mxCell id="FJ8fR7vCrXhes3fE69YZ-3" value="Result = n * n" style="whiteSpace=wrap;html=1;" parent="1" vertex="1">
          <mxGeometry x="280" y="330" width="120" height="60" as="geometry" />
        </mxCell>
        <mxCell id="FJ8fR7vCrXhes3fE69YZ-4" value="output result" style="shape=parallelogram;perimeter=parallelogramPerimeter;whiteSpace=wrap;html=1;fixedSize=1;" parent="1" vertex="1">
          <mxGeometry x="280" y="420" width="120" height="60" as="geometry" />
        </mxCell>
        <mxCell id="FJ8fR7vCrXhes3fE69YZ-5" value="Start" style="ellipse;whiteSpace=wrap;html=1;" parent="1" vertex="1">
          <mxGeometry x="280" y="100" width="120" height="80" as="geometry" />
        </mxCell>
        <mxCell id="FJ8fR7vCrXhes3fE69YZ-6" value="end" style="ellipse;whiteSpace=wrap;html=1;" parent="1" vertex="1">
          <mxGeometry x="280" y="640" width="120" height="80" as="geometry" />
        </mxCell>
        <mxCell id="FJ8fR7vCrXhes3fE69YZ-11" value="" style="endArrow=classic;html=1;rounded=0;" parent="1" edge="1">
          <mxGeometry width="50" height="50" relative="1" as="geometry">
            <mxPoint x="329.5" y="370" as="sourcePoint" />
            <mxPoint x="329.5" y="410" as="targetPoint" />
          </mxGeometry>
        </mxCell>
        <mxCell id="FJ8fR7vCrXhes3fE69YZ-12" value="" style="endArrow=classic;html=1;rounded=0;" parent="1" edge="1">
          <mxGeometry width="50" height="50" relative="1" as="geometry">
            <mxPoint x="339.5" y="280" as="sourcePoint" />
            <mxPoint x="339.5" y="320" as="targetPoint" />
          </mxGeometry>
        </mxCell>
        <mxCell id="FJ8fR7vCrXhes3fE69YZ-13" value="" style="endArrow=classic;html=1;rounded=0;" parent="1" edge="1">
          <mxGeometry width="50" height="50" relative="1" as="geometry">
            <mxPoint x="339.5" y="180" as="sourcePoint" />
            <mxPoint x="339.5" y="220" as="targetPoint" />
          </mxGeometry>
        </mxCell>
        <mxCell id="FJ8fR7vCrXhes3fE69YZ-15" value="" style="endArrow=classic;html=1;rounded=0;" parent="1" edge="1">
          <mxGeometry width="50" height="50" relative="1" as="geometry">
            <mxPoint x="339.5" y="590" as="sourcePoint" />
            <mxPoint x="339.5" y="630" as="targetPoint" />
          </mxGeometry>
        </mxCell>
      </root>
    </mxGraphModel>
  </diagram>
  <diagram id="qU_DBQOZ-jjfAjvAlZcI" name="Page-2">
    <mxGraphModel dx="1379" dy="796" grid="1" gridSize="10" guides="1" tooltips="1" connect="1" arrows="1" fold="1" page="1" pageScale="1" pageWidth="850" pageHeight="1100" math="0" shadow="0">
      <root>
        <mxCell id="0" />
        <mxCell id="1" parent="0" />
        <mxCell id="nw4NAQa-Jp-4B7hciEu_-1" value="Start" style="ellipse;whiteSpace=wrap;html=1;" parent="1" vertex="1">
          <mxGeometry x="320" y="20" width="120" height="80" as="geometry" />
        </mxCell>
        <mxCell id="nw4NAQa-Jp-4B7hciEu_-2" value="Input a" style="shape=parallelogram;perimeter=parallelogramPerimeter;whiteSpace=wrap;html=1;fixedSize=1;" parent="1" vertex="1">
          <mxGeometry x="320" y="140" width="120" height="60" as="geometry" />
        </mxCell>
        <mxCell id="nw4NAQa-Jp-4B7hciEu_-3" value="Input b" style="shape=parallelogram;perimeter=parallelogramPerimeter;whiteSpace=wrap;html=1;fixedSize=1;" parent="1" vertex="1">
          <mxGeometry x="318" y="240" width="120" height="60" as="geometry" />
        </mxCell>
        <mxCell id="jzs-jSqlVzWoOTb4iJhY-1" value="P=(a+B)*2" style="rounded=0;whiteSpace=wrap;html=1;" parent="1" vertex="1">
          <mxGeometry x="318" y="330" width="120" height="60" as="geometry" />
        </mxCell>
        <mxCell id="KBiG97n4yEpQvfRZSkzH-21" value="" style="edgeStyle=orthogonalEdgeStyle;rounded=0;orthogonalLoop=1;jettySize=auto;html=1;" parent="1" source="KBiG97n4yEpQvfRZSkzH-1" target="KBiG97n4yEpQvfRZSkzH-2" edge="1">
          <mxGeometry relative="1" as="geometry" />
        </mxCell>
        <mxCell id="KBiG97n4yEpQvfRZSkzH-1" value="Output P" style="shape=parallelogram;perimeter=parallelogramPerimeter;whiteSpace=wrap;html=1;fixedSize=1;" parent="1" vertex="1">
          <mxGeometry x="320" y="640" width="120" height="60" as="geometry" />
        </mxCell>
        <mxCell id="KBiG97n4yEpQvfRZSkzH-2" value="End" style="ellipse;whiteSpace=wrap;html=1;" parent="1" vertex="1">
          <mxGeometry x="320" y="760" width="120" height="80" as="geometry" />
        </mxCell>
        <mxCell id="KBiG97n4yEpQvfRZSkzH-5" value="" style="endArrow=classic;html=1;rounded=0;" parent="1" edge="1">
          <mxGeometry width="50" height="50" relative="1" as="geometry">
            <mxPoint x="380" y="110" as="sourcePoint" />
            <mxPoint x="380" y="140" as="targetPoint" />
          </mxGeometry>
        </mxCell>
        <mxCell id="KBiG97n4yEpQvfRZSkzH-7" value="" style="endArrow=classic;html=1;rounded=0;" parent="1" edge="1">
          <mxGeometry width="50" height="50" relative="1" as="geometry">
            <mxPoint x="380" y="200" as="sourcePoint" />
            <mxPoint x="379.5" y="240" as="targetPoint" />
          </mxGeometry>
        </mxCell>
        <mxCell id="KBiG97n4yEpQvfRZSkzH-8" value="" style="endArrow=classic;html=1;rounded=0;" parent="1" edge="1">
          <mxGeometry width="50" height="50" relative="1" as="geometry">
            <mxPoint x="378" y="290" as="sourcePoint" />
            <mxPoint x="377.5" y="330" as="targetPoint" />
          </mxGeometry>
        </mxCell>
        <mxCell id="KBiG97n4yEpQvfRZSkzH-18" value="" style="edgeStyle=orthogonalEdgeStyle;rounded=0;orthogonalLoop=1;jettySize=auto;html=1;" parent="1" source="KBiG97n4yEpQvfRZSkzH-16" target="KBiG97n4yEpQvfRZSkzH-17" edge="1">
          <mxGeometry relative="1" as="geometry" />
        </mxCell>
        <mxCell id="KBiG97n4yEpQvfRZSkzH-16" value="S=A*B" style="rounded=0;whiteSpace=wrap;html=1;" parent="1" vertex="1">
          <mxGeometry x="320" y="420" width="120" height="60" as="geometry" />
        </mxCell>
        <mxCell id="KBiG97n4yEpQvfRZSkzH-19" value="" style="edgeStyle=orthogonalEdgeStyle;rounded=0;orthogonalLoop=1;jettySize=auto;html=1;" parent="1" source="KBiG97n4yEpQvfRZSkzH-17" target="KBiG97n4yEpQvfRZSkzH-1" edge="1">
          <mxGeometry relative="1" as="geometry" />
        </mxCell>
        <mxCell id="KBiG97n4yEpQvfRZSkzH-17" value="Output S" style="shape=parallelogram;perimeter=parallelogramPerimeter;whiteSpace=wrap;html=1;fixedSize=1;" parent="1" vertex="1">
          <mxGeometry x="320" y="530" width="120" height="60" as="geometry" />
        </mxCell>
      </root>
    </mxGraphModel>
  </diagram>
  <diagram id="psxupahQQV5m0_BPk9me" name="Page-3">
    <mxGraphModel dx="529" dy="796" grid="1" gridSize="10" guides="1" tooltips="1" connect="1" arrows="1" fold="1" page="1" pageScale="1" pageWidth="850" pageHeight="1100" math="0" shadow="0">
      <root>
        <mxCell id="0" />
        <mxCell id="1" parent="0" />
        <mxCell id="0fDA23bULDyFDH-dCfn5-5" value="" style="edgeStyle=orthogonalEdgeStyle;rounded=0;orthogonalLoop=1;jettySize=auto;html=1;" parent="1" source="X3mOwbbehf3TRJDklGry-3" target="X3mOwbbehf3TRJDklGry-4" edge="1">
          <mxGeometry relative="1" as="geometry" />
        </mxCell>
        <mxCell id="X3mOwbbehf3TRJDklGry-3" value="Start" style="ellipse;whiteSpace=wrap;html=1;" parent="1" vertex="1">
          <mxGeometry x="1215" y="20" width="120" height="80" as="geometry" />
        </mxCell>
        <mxCell id="0fDA23bULDyFDH-dCfn5-6" value="" style="edgeStyle=orthogonalEdgeStyle;rounded=0;orthogonalLoop=1;jettySize=auto;html=1;" parent="1" source="X3mOwbbehf3TRJDklGry-4" target="0fDA23bULDyFDH-dCfn5-1" edge="1">
          <mxGeometry relative="1" as="geometry" />
        </mxCell>
        <mxCell id="X3mOwbbehf3TRJDklGry-4" value="Input N" style="shape=parallelogram;perimeter=parallelogramPerimeter;whiteSpace=wrap;html=1;fixedSize=1;" parent="1" vertex="1">
          <mxGeometry x="1215" y="140" width="120" height="60" as="geometry" />
        </mxCell>
        <mxCell id="0fDA23bULDyFDH-dCfn5-1" value="n % 3 == 0 ?" style="rhombus;whiteSpace=wrap;html=1;" parent="1" vertex="1">
          <mxGeometry x="1205" y="250" width="140" height="80" as="geometry" />
        </mxCell>
        <mxCell id="0fDA23bULDyFDH-dCfn5-2" value="Output N chia het cho 3" style="shape=parallelogram;perimeter=parallelogramPerimeter;whiteSpace=wrap;html=1;fixedSize=1;" parent="1" vertex="1">
          <mxGeometry x="1070" y="360" width="160" height="60" as="geometry" />
        </mxCell>
        <mxCell id="0fDA23bULDyFDH-dCfn5-3" value="Output N hk chia het cho 3" style="shape=parallelogram;perimeter=parallelogramPerimeter;whiteSpace=wrap;html=1;fixedSize=1;" parent="1" vertex="1">
          <mxGeometry x="1360" y="360" width="160" height="60" as="geometry" />
        </mxCell>
        <mxCell id="0fDA23bULDyFDH-dCfn5-4" value="End" style="ellipse;whiteSpace=wrap;html=1;" parent="1" vertex="1">
          <mxGeometry x="1210" y="470" width="120" height="80" as="geometry" />
        </mxCell>
        <mxCell id="0fDA23bULDyFDH-dCfn5-7" value="" style="endArrow=classic;html=1;rounded=0;exitX=1;exitY=0.5;exitDx=0;exitDy=0;" parent="1" source="0fDA23bULDyFDH-dCfn5-1" edge="1">
          <mxGeometry width="50" height="50" relative="1" as="geometry">
            <mxPoint x="1170" y="400" as="sourcePoint" />
            <mxPoint x="1430" y="350" as="targetPoint" />
            <Array as="points">
              <mxPoint x="1430" y="290" />
            </Array>
          </mxGeometry>
        </mxCell>
        <mxCell id="0fDA23bULDyFDH-dCfn5-8" value="" style="endArrow=classic;html=1;rounded=0;exitX=0;exitY=0.5;exitDx=0;exitDy=0;" parent="1" source="0fDA23bULDyFDH-dCfn5-1" edge="1">
          <mxGeometry width="50" height="50" relative="1" as="geometry">
            <mxPoint x="1170" y="400" as="sourcePoint" />
            <mxPoint x="1150" y="350" as="targetPoint" />
            <Array as="points">
              <mxPoint x="1150" y="290" />
            </Array>
          </mxGeometry>
        </mxCell>
        <mxCell id="0fDA23bULDyFDH-dCfn5-9" value="" style="endArrow=classic;html=1;rounded=0;" parent="1" target="0fDA23bULDyFDH-dCfn5-4" edge="1">
          <mxGeometry width="50" height="50" relative="1" as="geometry">
            <mxPoint x="1160" y="440" as="sourcePoint" />
            <mxPoint x="1220" y="350" as="targetPoint" />
          </mxGeometry>
        </mxCell>
        <mxCell id="0fDA23bULDyFDH-dCfn5-10" value="" style="endArrow=classic;html=1;rounded=0;" parent="1" edge="1">
          <mxGeometry width="50" height="50" relative="1" as="geometry">
            <mxPoint x="1430" y="430" as="sourcePoint" />
            <mxPoint x="1350" y="490" as="targetPoint" />
          </mxGeometry>
        </mxCell>
      </root>
    </mxGraphModel>
  </diagram>
  <diagram id="ST3K_4X9aS4vprcAE0fZ" name="Page-4">
    <mxGraphModel dx="529" dy="1896" grid="1" gridSize="10" guides="1" tooltips="1" connect="1" arrows="1" fold="1" page="1" pageScale="1" pageWidth="850" pageHeight="1100" math="0" shadow="0">
      <root>
        <mxCell id="0" />
        <mxCell id="1" parent="0" />
        <mxCell id="5lv6Me8hxkakQnvo7L2k-14" value="" style="edgeStyle=orthogonalEdgeStyle;rounded=0;orthogonalLoop=1;jettySize=auto;html=1;" parent="1" source="ibuWgqJzXGNKOvfCDLKl-1" target="VVmI4LnUpvWA90_GH27V-1" edge="1">
          <mxGeometry relative="1" as="geometry" />
        </mxCell>
        <mxCell id="ibuWgqJzXGNKOvfCDLKl-1" value="Start" style="ellipse;whiteSpace=wrap;html=1;" parent="1" vertex="1">
          <mxGeometry x="1215" y="-90" width="120" height="80" as="geometry" />
        </mxCell>
        <mxCell id="5lv6Me8hxkakQnvo7L2k-15" value="" style="edgeStyle=orthogonalEdgeStyle;rounded=0;orthogonalLoop=1;jettySize=auto;html=1;" parent="1" source="VVmI4LnUpvWA90_GH27V-1" target="5lv6Me8hxkakQnvo7L2k-13" edge="1">
          <mxGeometry relative="1" as="geometry" />
        </mxCell>
        <mxCell id="VVmI4LnUpvWA90_GH27V-1" value="Input A,B,C" style="shape=parallelogram;perimeter=parallelogramPerimeter;whiteSpace=wrap;html=1;fixedSize=1;" parent="1" vertex="1">
          <mxGeometry x="1215" y="30" width="120" height="60" as="geometry" />
        </mxCell>
        <mxCell id="5EqZjQpDP6QNOPAW2Y1g-1" value="Average &amp;gt;= 8?" style="rhombus;whiteSpace=wrap;html=1;" parent="1" vertex="1">
          <mxGeometry x="1175" y="240" width="200" height="80" as="geometry" />
        </mxCell>
        <mxCell id="vDSTP83kdkURhoQe4uZI-1" value="Output Average &amp;amp; Hsinh gioi" style="shape=parallelogram;perimeter=parallelogramPerimeter;whiteSpace=wrap;html=1;fixedSize=1;" parent="1" vertex="1">
          <mxGeometry x="1010" y="360" width="220" height="60" as="geometry" />
        </mxCell>
        <mxCell id="vDSTP83kdkURhoQe4uZI-2" value="Output Averagehk fai hs gioi" style="shape=parallelogram;perimeter=parallelogramPerimeter;whiteSpace=wrap;html=1;fixedSize=1;" parent="1" vertex="1">
          <mxGeometry x="1360" y="360" width="180" height="60" as="geometry" />
        </mxCell>
        <mxCell id="5lv6Me8hxkakQnvo7L2k-2" value="End&lt;br&gt;" style="ellipse;whiteSpace=wrap;html=1;" parent="1" vertex="1">
          <mxGeometry x="1210" y="470" width="120" height="80" as="geometry" />
        </mxCell>
        <mxCell id="5lv6Me8hxkakQnvo7L2k-5" value="" style="endArrow=classic;html=1;rounded=0;exitX=0;exitY=0.5;exitDx=0;exitDy=0;" parent="1" source="5EqZjQpDP6QNOPAW2Y1g-1" edge="1">
          <mxGeometry width="50" height="50" relative="1" as="geometry">
            <mxPoint x="1170" y="310" as="sourcePoint" />
            <mxPoint x="1117" y="350" as="targetPoint" />
            <Array as="points">
              <mxPoint x="1117" y="280" />
            </Array>
          </mxGeometry>
        </mxCell>
        <mxCell id="5lv6Me8hxkakQnvo7L2k-6" value="" style="endArrow=classic;html=1;rounded=0;exitX=1;exitY=0.5;exitDx=0;exitDy=0;" parent="1" source="5EqZjQpDP6QNOPAW2Y1g-1" edge="1">
          <mxGeometry width="50" height="50" relative="1" as="geometry">
            <mxPoint x="1170" y="310" as="sourcePoint" />
            <mxPoint x="1430" y="350" as="targetPoint" />
            <Array as="points">
              <mxPoint x="1430" y="280" />
            </Array>
          </mxGeometry>
        </mxCell>
        <mxCell id="5lv6Me8hxkakQnvo7L2k-7" value="" style="endArrow=classic;html=1;rounded=0;entryX=-0.025;entryY=0.613;entryDx=0;entryDy=0;entryPerimeter=0;" parent="1" target="5lv6Me8hxkakQnvo7L2k-2" edge="1">
          <mxGeometry width="50" height="50" relative="1" as="geometry">
            <mxPoint x="1120" y="430" as="sourcePoint" />
            <mxPoint x="1220" y="260" as="targetPoint" />
            <Array as="points">
              <mxPoint x="1120" y="520" />
            </Array>
          </mxGeometry>
        </mxCell>
        <mxCell id="5lv6Me8hxkakQnvo7L2k-8" value="" style="endArrow=classic;html=1;rounded=0;exitX=0.5;exitY=1;exitDx=0;exitDy=0;entryX=1;entryY=0.638;entryDx=0;entryDy=0;entryPerimeter=0;" parent="1" source="vDSTP83kdkURhoQe4uZI-2" target="5lv6Me8hxkakQnvo7L2k-2" edge="1">
          <mxGeometry width="50" height="50" relative="1" as="geometry">
            <mxPoint x="1170" y="310" as="sourcePoint" />
            <mxPoint x="1220" y="260" as="targetPoint" />
            <Array as="points">
              <mxPoint x="1420" y="521" />
            </Array>
          </mxGeometry>
        </mxCell>
        <mxCell id="5lv6Me8hxkakQnvo7L2k-10" value="Yes" style="text;html=1;align=center;verticalAlign=middle;resizable=0;points=[];autosize=1;strokeColor=none;fillColor=none;" parent="1" vertex="1">
          <mxGeometry x="1120" y="238" width="40" height="30" as="geometry" />
        </mxCell>
        <mxCell id="5lv6Me8hxkakQnvo7L2k-11" value="No" style="text;html=1;align=center;verticalAlign=middle;resizable=0;points=[];autosize=1;strokeColor=none;fillColor=none;" parent="1" vertex="1">
          <mxGeometry x="1360" y="240" width="40" height="30" as="geometry" />
        </mxCell>
        <mxCell id="5lv6Me8hxkakQnvo7L2k-16" value="" style="edgeStyle=orthogonalEdgeStyle;rounded=0;orthogonalLoop=1;jettySize=auto;html=1;" parent="1" source="5lv6Me8hxkakQnvo7L2k-13" target="5EqZjQpDP6QNOPAW2Y1g-1" edge="1">
          <mxGeometry relative="1" as="geometry" />
        </mxCell>
        <mxCell id="5lv6Me8hxkakQnvo7L2k-13" value="Average = (a+b+c)/3" style="rounded=0;whiteSpace=wrap;html=1;" parent="1" vertex="1">
          <mxGeometry x="1215" y="140" width="120" height="60" as="geometry" />
        </mxCell>
      </root>
    </mxGraphModel>
  </diagram>
  <diagram id="aQ78e1u6BwfP3yHv0elc" name="Page-5">
    <mxGraphModel dx="529" dy="796" grid="1" gridSize="10" guides="1" tooltips="1" connect="1" arrows="1" fold="1" page="1" pageScale="1" pageWidth="850" pageHeight="1100" math="0" shadow="0">
      <root>
        <mxCell id="0" />
        <mxCell id="1" parent="0" />
        <mxCell id="z3wGWQOsxyG2VqaCW7TW-7" value="" style="edgeStyle=orthogonalEdgeStyle;rounded=0;orthogonalLoop=1;jettySize=auto;html=1;" parent="1" source="JPVPvFfIrS3WMo6ite76-1" target="JPVPvFfIrS3WMo6ite76-3" edge="1">
          <mxGeometry relative="1" as="geometry" />
        </mxCell>
        <mxCell id="JPVPvFfIrS3WMo6ite76-1" value="Start" style="ellipse;whiteSpace=wrap;html=1;" parent="1" vertex="1">
          <mxGeometry x="1155" y="1080" width="120" height="80" as="geometry" />
        </mxCell>
        <mxCell id="z3wGWQOsxyG2VqaCW7TW-8" value="" style="edgeStyle=orthogonalEdgeStyle;rounded=0;orthogonalLoop=1;jettySize=auto;html=1;" parent="1" source="JPVPvFfIrS3WMo6ite76-3" target="JPVPvFfIrS3WMo6ite76-4" edge="1">
          <mxGeometry relative="1" as="geometry" />
        </mxCell>
        <mxCell id="JPVPvFfIrS3WMo6ite76-3" value="Input a,b,c" style="shape=parallelogram;perimeter=parallelogramPerimeter;whiteSpace=wrap;html=1;fixedSize=1;" parent="1" vertex="1">
          <mxGeometry x="1155" y="1190" width="120" height="60" as="geometry" />
        </mxCell>
        <mxCell id="z3wGWQOsxyG2VqaCW7TW-9" style="edgeStyle=orthogonalEdgeStyle;rounded=0;orthogonalLoop=1;jettySize=auto;html=1;" parent="1" source="JPVPvFfIrS3WMo6ite76-4" edge="1">
          <mxGeometry relative="1" as="geometry">
            <mxPoint x="1360" y="1410" as="targetPoint" />
          </mxGeometry>
        </mxCell>
        <mxCell id="z3wGWQOsxyG2VqaCW7TW-10" style="edgeStyle=orthogonalEdgeStyle;rounded=0;orthogonalLoop=1;jettySize=auto;html=1;" parent="1" source="JPVPvFfIrS3WMo6ite76-4" edge="1">
          <mxGeometry relative="1" as="geometry">
            <mxPoint x="1070" y="1410" as="targetPoint" />
          </mxGeometry>
        </mxCell>
        <mxCell id="JPVPvFfIrS3WMo6ite76-4" value="REsult = a &amp;gt; 75%, b &amp;gt; 80%&lt;br&gt;,c &amp;gt;= 7.5" style="rhombus;whiteSpace=wrap;html=1;" parent="1" vertex="1">
          <mxGeometry x="1130" y="1280" width="170" height="110" as="geometry" />
        </mxCell>
        <mxCell id="z3wGWQOsxyG2VqaCW7TW-12" style="edgeStyle=orthogonalEdgeStyle;rounded=0;orthogonalLoop=1;jettySize=auto;html=1;entryX=0;entryY=0.5;entryDx=0;entryDy=0;" parent="1" source="z3wGWQOsxyG2VqaCW7TW-3" target="z3wGWQOsxyG2VqaCW7TW-6" edge="1">
          <mxGeometry relative="1" as="geometry" />
        </mxCell>
        <mxCell id="z3wGWQOsxyG2VqaCW7TW-3" value="Output True" style="shape=parallelogram;perimeter=parallelogramPerimeter;whiteSpace=wrap;html=1;fixedSize=1;" parent="1" vertex="1">
          <mxGeometry x="1000" y="1420" width="120" height="60" as="geometry" />
        </mxCell>
        <mxCell id="z3wGWQOsxyG2VqaCW7TW-13" style="edgeStyle=orthogonalEdgeStyle;rounded=0;orthogonalLoop=1;jettySize=auto;html=1;entryX=1;entryY=0.375;entryDx=0;entryDy=0;entryPerimeter=0;" parent="1" source="z3wGWQOsxyG2VqaCW7TW-4" target="z3wGWQOsxyG2VqaCW7TW-6" edge="1">
          <mxGeometry relative="1" as="geometry" />
        </mxCell>
        <mxCell id="z3wGWQOsxyG2VqaCW7TW-4" value="Output False" style="shape=parallelogram;perimeter=parallelogramPerimeter;whiteSpace=wrap;html=1;fixedSize=1;" parent="1" vertex="1">
          <mxGeometry x="1290" y="1420" width="120" height="60" as="geometry" />
        </mxCell>
        <mxCell id="z3wGWQOsxyG2VqaCW7TW-6" value="End&lt;br&gt;" style="ellipse;whiteSpace=wrap;html=1;" parent="1" vertex="1">
          <mxGeometry x="1150" y="1520" width="120" height="80" as="geometry" />
        </mxCell>
        <mxCell id="6m9erIrKqyMANSof6T4A-1" value="YEs" style="text;html=1;align=center;verticalAlign=middle;resizable=0;points=[];autosize=1;strokeColor=none;fillColor=none;" parent="1" vertex="1">
          <mxGeometry x="1065" y="1298" width="50" height="30" as="geometry" />
        </mxCell>
        <mxCell id="6m9erIrKqyMANSof6T4A-2" value="No" style="text;html=1;align=center;verticalAlign=middle;resizable=0;points=[];autosize=1;strokeColor=none;fillColor=none;" parent="1" vertex="1">
          <mxGeometry x="1310" y="1298" width="40" height="30" as="geometry" />
        </mxCell>
      </root>
    </mxGraphModel>
  </diagram>
  <diagram id="vugiVQ-gMrgf6hfYNd3T" name="Page-6">
    <mxGraphModel dx="1379" dy="796" grid="1" gridSize="10" guides="1" tooltips="1" connect="1" arrows="1" fold="1" page="1" pageScale="1" pageWidth="850" pageHeight="1100" math="0" shadow="0">
      <root>
        <mxCell id="0" />
        <mxCell id="1" parent="0" />
        <mxCell id="YD1Eoj3a6R7ZF2tr-QoF-7" value="" style="edgeStyle=orthogonalEdgeStyle;rounded=0;orthogonalLoop=1;jettySize=auto;html=1;" parent="1" source="YD1Eoj3a6R7ZF2tr-QoF-1" target="YD1Eoj3a6R7ZF2tr-QoF-2" edge="1">
          <mxGeometry relative="1" as="geometry" />
        </mxCell>
        <mxCell id="YD1Eoj3a6R7ZF2tr-QoF-1" value="Start" style="ellipse;whiteSpace=wrap;html=1;" parent="1" vertex="1">
          <mxGeometry x="340" y="10" width="120" height="80" as="geometry" />
        </mxCell>
        <mxCell id="YD1Eoj3a6R7ZF2tr-QoF-8" value="" style="edgeStyle=orthogonalEdgeStyle;rounded=0;orthogonalLoop=1;jettySize=auto;html=1;" parent="1" source="YD1Eoj3a6R7ZF2tr-QoF-2" target="YD1Eoj3a6R7ZF2tr-QoF-3" edge="1">
          <mxGeometry relative="1" as="geometry" />
        </mxCell>
        <mxCell id="YD1Eoj3a6R7ZF2tr-QoF-2" value="&lt;div&gt;a=60 #60 phút&lt;/div&gt;&lt;div&gt;b=33 #33km&lt;/div&gt;&lt;div&gt;c=1 # 1 phút&lt;/div&gt;&lt;div&gt;d=72 # 1 hour 12 mins&lt;/div&gt;" style="shape=parallelogram;perimeter=parallelogramPerimeter;whiteSpace=wrap;html=1;fixedSize=1;" parent="1" vertex="1">
          <mxGeometry x="265" y="120" width="270" height="110" as="geometry" />
        </mxCell>
        <mxCell id="YD1Eoj3a6R7ZF2tr-QoF-9" value="" style="edgeStyle=orthogonalEdgeStyle;rounded=0;orthogonalLoop=1;jettySize=auto;html=1;" parent="1" source="YD1Eoj3a6R7ZF2tr-QoF-3" target="YD1Eoj3a6R7ZF2tr-QoF-4" edge="1">
          <mxGeometry relative="1" as="geometry" />
        </mxCell>
        <mxCell id="YD1Eoj3a6R7ZF2tr-QoF-3" value="TB=(c*b)/a&lt;br&gt;Totalkm=d*TB" style="rounded=0;whiteSpace=wrap;html=1;" parent="1" vertex="1">
          <mxGeometry x="270" y="299" width="260" height="60" as="geometry" />
        </mxCell>
        <mxCell id="YD1Eoj3a6R7ZF2tr-QoF-10" value="" style="edgeStyle=orthogonalEdgeStyle;rounded=0;orthogonalLoop=1;jettySize=auto;html=1;" parent="1" source="YD1Eoj3a6R7ZF2tr-QoF-4" target="YD1Eoj3a6R7ZF2tr-QoF-5" edge="1">
          <mxGeometry relative="1" as="geometry" />
        </mxCell>
        <mxCell id="YD1Eoj3a6R7ZF2tr-QoF-4" value="print(TB)&#xa;print(Totalkm)" style="shape=parallelogram;perimeter=parallelogramPerimeter;whiteSpace=wrap;html=1;fixedSize=1;" parent="1" vertex="1">
          <mxGeometry x="290" y="440" width="220" height="90" as="geometry" />
        </mxCell>
        <mxCell id="YD1Eoj3a6R7ZF2tr-QoF-5" value="End" style="ellipse;whiteSpace=wrap;html=1;" parent="1" vertex="1">
          <mxGeometry x="340" y="590" width="120" height="80" as="geometry" />
        </mxCell>
      </root>
    </mxGraphModel>
  </diagram>
  <diagram id="3_CEm4I1OAbPu6Aqe_Nd" name="Page-7">
    <mxGraphModel dx="1379" dy="796" grid="1" gridSize="10" guides="1" tooltips="1" connect="1" arrows="1" fold="1" page="1" pageScale="1" pageWidth="850" pageHeight="1100" math="0" shadow="0">
      <root>
        <mxCell id="0" />
        <mxCell id="1" parent="0" />
        <mxCell id="LVg-NtjqEBGxrxqqXORH-1" value="" style="edgeStyle=orthogonalEdgeStyle;rounded=0;orthogonalLoop=1;jettySize=auto;html=1;" edge="1" parent="1" source="LVg-NtjqEBGxrxqqXORH-2" target="LVg-NtjqEBGxrxqqXORH-4">
          <mxGeometry relative="1" as="geometry" />
        </mxCell>
        <mxCell id="LVg-NtjqEBGxrxqqXORH-2" value="Start" style="ellipse;whiteSpace=wrap;html=1;" vertex="1" parent="1">
          <mxGeometry x="355" y="100" width="120" height="80" as="geometry" />
        </mxCell>
        <mxCell id="LVg-NtjqEBGxrxqqXORH-3" value="" style="edgeStyle=orthogonalEdgeStyle;rounded=0;orthogonalLoop=1;jettySize=auto;html=1;" edge="1" parent="1" source="LVg-NtjqEBGxrxqqXORH-4" target="LVg-NtjqEBGxrxqqXORH-7">
          <mxGeometry relative="1" as="geometry" />
        </mxCell>
        <mxCell id="LVg-NtjqEBGxrxqqXORH-4" value="Input&amp;nbsp;&lt;br&gt;a&lt;br&gt;b" style="shape=parallelogram;perimeter=parallelogramPerimeter;whiteSpace=wrap;html=1;fixedSize=1;" vertex="1" parent="1">
          <mxGeometry x="345" y="220" width="140" height="80" as="geometry" />
        </mxCell>
        <mxCell id="LVg-NtjqEBGxrxqqXORH-5" style="edgeStyle=orthogonalEdgeStyle;rounded=0;orthogonalLoop=1;jettySize=auto;html=1;entryX=0.589;entryY=-0.067;entryDx=0;entryDy=0;entryPerimeter=0;" edge="1" parent="1" source="LVg-NtjqEBGxrxqqXORH-7" target="LVg-NtjqEBGxrxqqXORH-11">
          <mxGeometry relative="1" as="geometry" />
        </mxCell>
        <mxCell id="LVg-NtjqEBGxrxqqXORH-6" style="edgeStyle=orthogonalEdgeStyle;rounded=0;orthogonalLoop=1;jettySize=auto;html=1;exitX=0;exitY=0.5;exitDx=0;exitDy=0;entryX=0.5;entryY=0;entryDx=0;entryDy=0;" edge="1" parent="1" source="LVg-NtjqEBGxrxqqXORH-7" target="LVg-NtjqEBGxrxqqXORH-9">
          <mxGeometry relative="1" as="geometry" />
        </mxCell>
        <mxCell id="LVg-NtjqEBGxrxqqXORH-7" value="a&amp;gt;b?" style="rhombus;whiteSpace=wrap;html=1;" vertex="1" parent="1">
          <mxGeometry x="330" y="350" width="170" height="80" as="geometry" />
        </mxCell>
        <mxCell id="LVg-NtjqEBGxrxqqXORH-8" style="edgeStyle=orthogonalEdgeStyle;rounded=0;orthogonalLoop=1;jettySize=auto;html=1;entryX=0.292;entryY=0.013;entryDx=0;entryDy=0;entryPerimeter=0;" edge="1" parent="1" source="LVg-NtjqEBGxrxqqXORH-9">
          <mxGeometry relative="1" as="geometry">
            <mxPoint x="415" y="651" as="targetPoint" />
          </mxGeometry>
        </mxCell>
        <mxCell id="LVg-NtjqEBGxrxqqXORH-9" value="Output&lt;br&gt;a" style="shape=parallelogram;perimeter=parallelogramPerimeter;whiteSpace=wrap;html=1;fixedSize=1;" vertex="1" parent="1">
          <mxGeometry x="150" y="490" width="180" height="60" as="geometry" />
        </mxCell>
        <mxCell id="LVg-NtjqEBGxrxqqXORH-10" style="edgeStyle=orthogonalEdgeStyle;rounded=0;orthogonalLoop=1;jettySize=auto;html=1;" edge="1" parent="1" source="LVg-NtjqEBGxrxqqXORH-11">
          <mxGeometry relative="1" as="geometry">
            <mxPoint x="440" y="650" as="targetPoint" />
          </mxGeometry>
        </mxCell>
        <mxCell id="LVg-NtjqEBGxrxqqXORH-11" value="Output&lt;br&gt;b" style="shape=parallelogram;perimeter=parallelogramPerimeter;whiteSpace=wrap;html=1;fixedSize=1;" vertex="1" parent="1">
          <mxGeometry x="515" y="490" width="170" height="60" as="geometry" />
        </mxCell>
        <mxCell id="LVg-NtjqEBGxrxqqXORH-12" value="End" style="ellipse;whiteSpace=wrap;html=1;" vertex="1" parent="1">
          <mxGeometry x="365" y="650" width="120" height="80" as="geometry" />
        </mxCell>
        <mxCell id="yv9MHkwGKxA03edrN8Wd-1" value="No" style="text;html=1;align=center;verticalAlign=middle;resizable=0;points=[];autosize=1;strokeColor=none;fillColor=none;" vertex="1" parent="1">
          <mxGeometry x="580" y="360" width="40" height="30" as="geometry" />
        </mxCell>
        <mxCell id="yv9MHkwGKxA03edrN8Wd-2" value="Yes" style="text;html=1;align=center;verticalAlign=middle;resizable=0;points=[];autosize=1;strokeColor=none;fillColor=none;" vertex="1" parent="1">
          <mxGeometry x="240" y="360" width="40" height="30" as="geometry" />
        </mxCell>
      </root>
    </mxGraphModel>
  </diagram>
  <diagram id="gvbPwHJjO28C51itYIAW" name="Page-8">
    <mxGraphModel dx="1379" dy="796" grid="1" gridSize="10" guides="1" tooltips="1" connect="1" arrows="1" fold="1" page="1" pageScale="1" pageWidth="850" pageHeight="1100" math="0" shadow="0">
      <root>
        <mxCell id="0" />
        <mxCell id="1" parent="0" />
        <mxCell id="sJ1u-crbI3iV3-ilKwmd-5" value="" style="edgeStyle=orthogonalEdgeStyle;rounded=0;orthogonalLoop=1;jettySize=auto;html=1;" edge="1" parent="1" source="BammgDkbRcveqk7qwfUJ-1" target="BammgDkbRcveqk7qwfUJ-2">
          <mxGeometry relative="1" as="geometry" />
        </mxCell>
        <mxCell id="BammgDkbRcveqk7qwfUJ-1" value="Start" style="ellipse;whiteSpace=wrap;html=1;" vertex="1" parent="1">
          <mxGeometry x="350" y="10" width="120" height="80" as="geometry" />
        </mxCell>
        <mxCell id="sJ1u-crbI3iV3-ilKwmd-6" value="" style="edgeStyle=orthogonalEdgeStyle;rounded=0;orthogonalLoop=1;jettySize=auto;html=1;" edge="1" parent="1" source="BammgDkbRcveqk7qwfUJ-2" target="Ux9b-GuDONm9TIl0itOy-1">
          <mxGeometry relative="1" as="geometry" />
        </mxCell>
        <mxCell id="BammgDkbRcveqk7qwfUJ-2" value="Input&amp;nbsp;&lt;br&gt;chieu_dai&lt;br&gt;chieu_rong" style="shape=parallelogram;perimeter=parallelogramPerimeter;whiteSpace=wrap;html=1;fixedSize=1;" vertex="1" parent="1">
          <mxGeometry x="340" y="150" width="140" height="80" as="geometry" />
        </mxCell>
        <mxCell id="sJ1u-crbI3iV3-ilKwmd-7" style="edgeStyle=orthogonalEdgeStyle;rounded=0;orthogonalLoop=1;jettySize=auto;html=1;entryX=0.589;entryY=-0.067;entryDx=0;entryDy=0;entryPerimeter=0;" edge="1" parent="1" source="Ux9b-GuDONm9TIl0itOy-1" target="sJ1u-crbI3iV3-ilKwmd-2">
          <mxGeometry relative="1" as="geometry" />
        </mxCell>
        <mxCell id="sJ1u-crbI3iV3-ilKwmd-8" style="edgeStyle=orthogonalEdgeStyle;rounded=0;orthogonalLoop=1;jettySize=auto;html=1;exitX=0;exitY=0.5;exitDx=0;exitDy=0;entryX=0.5;entryY=0;entryDx=0;entryDy=0;" edge="1" parent="1" source="Ux9b-GuDONm9TIl0itOy-1" target="D2VrO-9sbxQ9ZkoKKr2t-1">
          <mxGeometry relative="1" as="geometry" />
        </mxCell>
        <mxCell id="Ux9b-GuDONm9TIl0itOy-1" value="chieu_dai == chieu_rong?" style="rhombus;whiteSpace=wrap;html=1;" vertex="1" parent="1">
          <mxGeometry x="325" y="260" width="175" height="80" as="geometry" />
        </mxCell>
        <mxCell id="sJ1u-crbI3iV3-ilKwmd-11" style="edgeStyle=orthogonalEdgeStyle;rounded=0;orthogonalLoop=1;jettySize=auto;html=1;entryX=0.292;entryY=0.013;entryDx=0;entryDy=0;entryPerimeter=0;" edge="1" parent="1" source="D2VrO-9sbxQ9ZkoKKr2t-1" target="sJ1u-crbI3iV3-ilKwmd-3">
          <mxGeometry relative="1" as="geometry" />
        </mxCell>
        <mxCell id="D2VrO-9sbxQ9ZkoKKr2t-1" value="Output&lt;br&gt;Hinh vuong" style="shape=parallelogram;perimeter=parallelogramPerimeter;whiteSpace=wrap;html=1;fixedSize=1;" vertex="1" parent="1">
          <mxGeometry x="145" y="400" width="180" height="60" as="geometry" />
        </mxCell>
        <mxCell id="sJ1u-crbI3iV3-ilKwmd-9" style="edgeStyle=orthogonalEdgeStyle;rounded=0;orthogonalLoop=1;jettySize=auto;html=1;" edge="1" parent="1" source="sJ1u-crbI3iV3-ilKwmd-2" target="sJ1u-crbI3iV3-ilKwmd-3">
          <mxGeometry relative="1" as="geometry">
            <mxPoint x="595" y="600" as="targetPoint" />
          </mxGeometry>
        </mxCell>
        <mxCell id="sJ1u-crbI3iV3-ilKwmd-2" value="Output&lt;br&gt;Hk phai hinh vuong" style="shape=parallelogram;perimeter=parallelogramPerimeter;whiteSpace=wrap;html=1;fixedSize=1;" vertex="1" parent="1">
          <mxGeometry x="510" y="400" width="170" height="60" as="geometry" />
        </mxCell>
        <mxCell id="sJ1u-crbI3iV3-ilKwmd-3" value="End" style="ellipse;whiteSpace=wrap;html=1;" vertex="1" parent="1">
          <mxGeometry x="375" y="560" width="120" height="80" as="geometry" />
        </mxCell>
        <mxCell id="WSpX0pu5lnFENIw8nfJt-1" value="No" style="text;html=1;align=center;verticalAlign=middle;resizable=0;points=[];autosize=1;strokeColor=none;fillColor=none;" vertex="1" parent="1">
          <mxGeometry x="560" y="330" width="40" height="30" as="geometry" />
        </mxCell>
        <mxCell id="WSpX0pu5lnFENIw8nfJt-2" value="Yes" style="text;html=1;align=center;verticalAlign=middle;resizable=0;points=[];autosize=1;strokeColor=none;fillColor=none;" vertex="1" parent="1">
          <mxGeometry x="250" y="340" width="40" height="30" as="geometry" />
        </mxCell>
      </root>
    </mxGraphModel>
  </diagram>
  <diagram id="QcoeArLzlxLDhC1xnOHk" name="Page-9">
    <mxGraphModel dx="1379" dy="796" grid="1" gridSize="10" guides="1" tooltips="1" connect="1" arrows="1" fold="1" page="1" pageScale="1" pageWidth="850" pageHeight="1100" math="0" shadow="0">
      <root>
        <mxCell id="0" />
        <mxCell id="1" parent="0" />
        <mxCell id="IESC9F92JaomJuBl98og-1" value="" style="edgeStyle=orthogonalEdgeStyle;rounded=0;orthogonalLoop=1;jettySize=auto;html=1;" edge="1" parent="1" source="IESC9F92JaomJuBl98og-2" target="IESC9F92JaomJuBl98og-4">
          <mxGeometry relative="1" as="geometry" />
        </mxCell>
        <mxCell id="IESC9F92JaomJuBl98og-2" value="Start" style="ellipse;whiteSpace=wrap;html=1;" vertex="1" parent="1">
          <mxGeometry x="355" y="80" width="120" height="80" as="geometry" />
        </mxCell>
        <mxCell id="IESC9F92JaomJuBl98og-3" value="" style="edgeStyle=orthogonalEdgeStyle;rounded=0;orthogonalLoop=1;jettySize=auto;html=1;" edge="1" parent="1" source="IESC9F92JaomJuBl98og-4" target="IESC9F92JaomJuBl98og-7">
          <mxGeometry relative="1" as="geometry" />
        </mxCell>
        <mxCell id="IESC9F92JaomJuBl98og-4" value="Input&amp;nbsp;&lt;br&gt;a&lt;br&gt;b&lt;br&gt;c" style="shape=parallelogram;perimeter=parallelogramPerimeter;whiteSpace=wrap;html=1;fixedSize=1;" vertex="1" parent="1">
          <mxGeometry x="345" y="220" width="140" height="80" as="geometry" />
        </mxCell>
        <mxCell id="IESC9F92JaomJuBl98og-18" value="" style="edgeStyle=orthogonalEdgeStyle;rounded=0;orthogonalLoop=1;jettySize=auto;html=1;" edge="1" parent="1" source="IESC9F92JaomJuBl98og-7" target="IESC9F92JaomJuBl98og-13">
          <mxGeometry relative="1" as="geometry" />
        </mxCell>
        <mxCell id="IESC9F92JaomJuBl98og-20" value="" style="edgeStyle=orthogonalEdgeStyle;rounded=0;orthogonalLoop=1;jettySize=auto;html=1;" edge="1" parent="1" source="IESC9F92JaomJuBl98og-7" target="IESC9F92JaomJuBl98og-11">
          <mxGeometry relative="1" as="geometry" />
        </mxCell>
        <mxCell id="IESC9F92JaomJuBl98og-7" value="a&amp;gt;b and a&amp;gt;c" style="rhombus;whiteSpace=wrap;html=1;" vertex="1" parent="1">
          <mxGeometry x="330" y="350" width="170" height="80" as="geometry" />
        </mxCell>
        <mxCell id="IESC9F92JaomJuBl98og-11" value="Print a" style="shape=parallelogram;perimeter=parallelogramPerimeter;whiteSpace=wrap;html=1;fixedSize=1;" vertex="1" parent="1">
          <mxGeometry x="590" y="360" width="170" height="60" as="geometry" />
        </mxCell>
        <mxCell id="IESC9F92JaomJuBl98og-19" value="" style="edgeStyle=orthogonalEdgeStyle;rounded=0;orthogonalLoop=1;jettySize=auto;html=1;" edge="1" parent="1" source="IESC9F92JaomJuBl98og-13" target="IESC9F92JaomJuBl98og-15">
          <mxGeometry relative="1" as="geometry" />
        </mxCell>
        <mxCell id="IESC9F92JaomJuBl98og-21" value="" style="edgeStyle=orthogonalEdgeStyle;rounded=0;orthogonalLoop=1;jettySize=auto;html=1;" edge="1" parent="1" source="IESC9F92JaomJuBl98og-13" target="IESC9F92JaomJuBl98og-14">
          <mxGeometry relative="1" as="geometry" />
        </mxCell>
        <mxCell id="IESC9F92JaomJuBl98og-13" value="b&amp;gt;a and b&amp;gt;c" style="rhombus;whiteSpace=wrap;html=1;" vertex="1" parent="1">
          <mxGeometry x="330" y="490" width="170" height="80" as="geometry" />
        </mxCell>
        <mxCell id="IESC9F92JaomJuBl98og-14" value="Print b" style="shape=parallelogram;perimeter=parallelogramPerimeter;whiteSpace=wrap;html=1;fixedSize=1;" vertex="1" parent="1">
          <mxGeometry x="560" y="500" width="170" height="60" as="geometry" />
        </mxCell>
        <mxCell id="IESC9F92JaomJuBl98og-22" value="" style="edgeStyle=orthogonalEdgeStyle;rounded=0;orthogonalLoop=1;jettySize=auto;html=1;" edge="1" parent="1" source="IESC9F92JaomJuBl98og-15" target="IESC9F92JaomJuBl98og-16">
          <mxGeometry relative="1" as="geometry" />
        </mxCell>
        <mxCell id="IESC9F92JaomJuBl98og-15" value="c&amp;gt;a and c&amp;gt;b" style="rhombus;whiteSpace=wrap;html=1;" vertex="1" parent="1">
          <mxGeometry x="330" y="610" width="170" height="80" as="geometry" />
        </mxCell>
        <mxCell id="IESC9F92JaomJuBl98og-16" value="Print c" style="shape=parallelogram;perimeter=parallelogramPerimeter;whiteSpace=wrap;html=1;fixedSize=1;" vertex="1" parent="1">
          <mxGeometry x="560" y="620" width="170" height="60" as="geometry" />
        </mxCell>
        <mxCell id="IESC9F92JaomJuBl98og-23" value="Yes&lt;br&gt;" style="text;html=1;align=center;verticalAlign=middle;resizable=0;points=[];autosize=1;strokeColor=none;fillColor=none;" vertex="1" parent="1">
          <mxGeometry x="520" y="360" width="40" height="30" as="geometry" />
        </mxCell>
        <mxCell id="IESC9F92JaomJuBl98og-24" value="Yes&lt;br&gt;" style="text;html=1;align=center;verticalAlign=middle;resizable=0;points=[];autosize=1;strokeColor=none;fillColor=none;" vertex="1" parent="1">
          <mxGeometry x="520" y="490" width="40" height="30" as="geometry" />
        </mxCell>
        <mxCell id="IESC9F92JaomJuBl98og-27" value="Yes&lt;br&gt;" style="text;html=1;align=center;verticalAlign=middle;resizable=0;points=[];autosize=1;strokeColor=none;fillColor=none;" vertex="1" parent="1">
          <mxGeometry x="520" y="610" width="40" height="30" as="geometry" />
        </mxCell>
        <mxCell id="IESC9F92JaomJuBl98og-28" value="No" style="text;html=1;align=center;verticalAlign=middle;resizable=0;points=[];autosize=1;strokeColor=none;fillColor=none;" vertex="1" parent="1">
          <mxGeometry x="420" y="448" width="40" height="30" as="geometry" />
        </mxCell>
        <mxCell id="IESC9F92JaomJuBl98og-29" value="No" style="text;html=1;align=center;verticalAlign=middle;resizable=0;points=[];autosize=1;strokeColor=none;fillColor=none;" vertex="1" parent="1">
          <mxGeometry x="425" y="580" width="40" height="30" as="geometry" />
        </mxCell>
      </root>
    </mxGraphModel>
  </diagram>
  <diagram id="uyRm2pV4NMYs0W5JjqCv" name="Page-10">
    <mxGraphModel dx="1379" dy="796" grid="1" gridSize="10" guides="1" tooltips="1" connect="1" arrows="1" fold="1" page="1" pageScale="1" pageWidth="850" pageHeight="1100" math="0" shadow="0">
      <root>
        <mxCell id="0" />
        <mxCell id="1" parent="0" />
        <mxCell id="L7-L8J1kp9Zc5vhTw_kq-1" value="" style="edgeStyle=orthogonalEdgeStyle;rounded=0;orthogonalLoop=1;jettySize=auto;html=1;" edge="1" parent="1" source="L7-L8J1kp9Zc5vhTw_kq-2" target="L7-L8J1kp9Zc5vhTw_kq-4">
          <mxGeometry relative="1" as="geometry" />
        </mxCell>
        <mxCell id="L7-L8J1kp9Zc5vhTw_kq-2" value="Start" style="ellipse;whiteSpace=wrap;html=1;" vertex="1" parent="1">
          <mxGeometry x="155" y="40" width="120" height="80" as="geometry" />
        </mxCell>
        <mxCell id="L7-L8J1kp9Zc5vhTw_kq-3" value="" style="edgeStyle=orthogonalEdgeStyle;rounded=0;orthogonalLoop=1;jettySize=auto;html=1;" edge="1" parent="1" source="L7-L8J1kp9Zc5vhTw_kq-4" target="L7-L8J1kp9Zc5vhTw_kq-7">
          <mxGeometry relative="1" as="geometry" />
        </mxCell>
        <mxCell id="L7-L8J1kp9Zc5vhTw_kq-4" value="Input&amp;nbsp;&lt;br&gt;a&lt;br&gt;b&lt;br&gt;c" style="shape=parallelogram;perimeter=parallelogramPerimeter;whiteSpace=wrap;html=1;fixedSize=1;" vertex="1" parent="1">
          <mxGeometry x="145" y="150" width="140" height="80" as="geometry" />
        </mxCell>
        <mxCell id="L7-L8J1kp9Zc5vhTw_kq-5" value="" style="edgeStyle=orthogonalEdgeStyle;rounded=0;orthogonalLoop=1;jettySize=auto;html=1;" edge="1" parent="1" source="L7-L8J1kp9Zc5vhTw_kq-7" target="L7-L8J1kp9Zc5vhTw_kq-11">
          <mxGeometry relative="1" as="geometry" />
        </mxCell>
        <mxCell id="L7-L8J1kp9Zc5vhTw_kq-6" value="" style="edgeStyle=orthogonalEdgeStyle;rounded=0;orthogonalLoop=1;jettySize=auto;html=1;" edge="1" parent="1" source="L7-L8J1kp9Zc5vhTw_kq-7" target="L7-L8J1kp9Zc5vhTw_kq-8">
          <mxGeometry relative="1" as="geometry" />
        </mxCell>
        <mxCell id="L7-L8J1kp9Zc5vhTw_kq-7" value="a&amp;gt;b&amp;gt;c&amp;nbsp;" style="rhombus;whiteSpace=wrap;html=1;" vertex="1" parent="1">
          <mxGeometry x="130" y="260" width="170" height="80" as="geometry" />
        </mxCell>
        <mxCell id="L7-L8J1kp9Zc5vhTw_kq-8" value="Print a lớn nhất&lt;br&gt;Print c bé nhất" style="shape=parallelogram;perimeter=parallelogramPerimeter;whiteSpace=wrap;html=1;fixedSize=1;" vertex="1" parent="1">
          <mxGeometry x="390" y="270" width="170" height="60" as="geometry" />
        </mxCell>
        <mxCell id="L7-L8J1kp9Zc5vhTw_kq-9" value="" style="edgeStyle=orthogonalEdgeStyle;rounded=0;orthogonalLoop=1;jettySize=auto;html=1;" edge="1" parent="1" source="L7-L8J1kp9Zc5vhTw_kq-11" target="L7-L8J1kp9Zc5vhTw_kq-14">
          <mxGeometry relative="1" as="geometry" />
        </mxCell>
        <mxCell id="L7-L8J1kp9Zc5vhTw_kq-10" value="" style="edgeStyle=orthogonalEdgeStyle;rounded=0;orthogonalLoop=1;jettySize=auto;html=1;" edge="1" parent="1" source="L7-L8J1kp9Zc5vhTw_kq-11" target="L7-L8J1kp9Zc5vhTw_kq-12">
          <mxGeometry relative="1" as="geometry" />
        </mxCell>
        <mxCell id="L7-L8J1kp9Zc5vhTw_kq-11" value="a&amp;gt;c&amp;gt;b" style="rhombus;whiteSpace=wrap;html=1;" vertex="1" parent="1">
          <mxGeometry x="130" y="370" width="170" height="80" as="geometry" />
        </mxCell>
        <mxCell id="L7-L8J1kp9Zc5vhTw_kq-12" value="Print a lớn nhất&lt;br style=&quot;border-color: var(--border-color);&quot;&gt;Print b bé nhất" style="shape=parallelogram;perimeter=parallelogramPerimeter;whiteSpace=wrap;html=1;fixedSize=1;" vertex="1" parent="1">
          <mxGeometry x="380" y="378" width="170" height="60" as="geometry" />
        </mxCell>
        <mxCell id="L7-L8J1kp9Zc5vhTw_kq-13" value="" style="edgeStyle=orthogonalEdgeStyle;rounded=0;orthogonalLoop=1;jettySize=auto;html=1;" edge="1" parent="1" source="L7-L8J1kp9Zc5vhTw_kq-14" target="L7-L8J1kp9Zc5vhTw_kq-15">
          <mxGeometry relative="1" as="geometry" />
        </mxCell>
        <mxCell id="L7-L8J1kp9Zc5vhTw_kq-27" value="" style="edgeStyle=orthogonalEdgeStyle;rounded=0;orthogonalLoop=1;jettySize=auto;html=1;" edge="1" parent="1" source="L7-L8J1kp9Zc5vhTw_kq-14" target="L7-L8J1kp9Zc5vhTw_kq-21">
          <mxGeometry relative="1" as="geometry" />
        </mxCell>
        <mxCell id="L7-L8J1kp9Zc5vhTw_kq-14" value="b&amp;gt;c&amp;gt;a" style="rhombus;whiteSpace=wrap;html=1;" vertex="1" parent="1">
          <mxGeometry x="130" y="470" width="170" height="80" as="geometry" />
        </mxCell>
        <mxCell id="L7-L8J1kp9Zc5vhTw_kq-15" value="Print b lớn nhất&lt;br style=&quot;border-color: var(--border-color);&quot;&gt;Print a bé nhất" style="shape=parallelogram;perimeter=parallelogramPerimeter;whiteSpace=wrap;html=1;fixedSize=1;" vertex="1" parent="1">
          <mxGeometry x="380" y="480" width="170" height="60" as="geometry" />
        </mxCell>
        <mxCell id="L7-L8J1kp9Zc5vhTw_kq-16" value="Yes&lt;br&gt;" style="text;html=1;align=center;verticalAlign=middle;resizable=0;points=[];autosize=1;strokeColor=none;fillColor=none;" vertex="1" parent="1">
          <mxGeometry x="320" y="320" width="40" height="30" as="geometry" />
        </mxCell>
        <mxCell id="L7-L8J1kp9Zc5vhTw_kq-17" value="Yes&lt;br&gt;" style="text;html=1;align=center;verticalAlign=middle;resizable=0;points=[];autosize=1;strokeColor=none;fillColor=none;" vertex="1" parent="1">
          <mxGeometry x="300" y="470" width="40" height="30" as="geometry" />
        </mxCell>
        <mxCell id="L7-L8J1kp9Zc5vhTw_kq-18" value="Yes&lt;br&gt;" style="text;html=1;align=center;verticalAlign=middle;resizable=0;points=[];autosize=1;strokeColor=none;fillColor=none;" vertex="1" parent="1">
          <mxGeometry x="300" y="590" width="40" height="30" as="geometry" />
        </mxCell>
        <mxCell id="L7-L8J1kp9Zc5vhTw_kq-19" value="No" style="text;html=1;align=center;verticalAlign=middle;resizable=0;points=[];autosize=1;strokeColor=none;fillColor=none;" vertex="1" parent="1">
          <mxGeometry x="235" y="780" width="40" height="30" as="geometry" />
        </mxCell>
        <mxCell id="L7-L8J1kp9Zc5vhTw_kq-20" value="No" style="text;html=1;align=center;verticalAlign=middle;resizable=0;points=[];autosize=1;strokeColor=none;fillColor=none;" vertex="1" parent="1">
          <mxGeometry x="225" y="540" width="40" height="30" as="geometry" />
        </mxCell>
        <mxCell id="L7-L8J1kp9Zc5vhTw_kq-28" value="" style="edgeStyle=orthogonalEdgeStyle;rounded=0;orthogonalLoop=1;jettySize=auto;html=1;" edge="1" parent="1" source="L7-L8J1kp9Zc5vhTw_kq-21" target="L7-L8J1kp9Zc5vhTw_kq-23">
          <mxGeometry relative="1" as="geometry" />
        </mxCell>
        <mxCell id="L7-L8J1kp9Zc5vhTw_kq-33" value="" style="edgeStyle=orthogonalEdgeStyle;rounded=0;orthogonalLoop=1;jettySize=auto;html=1;" edge="1" parent="1" source="L7-L8J1kp9Zc5vhTw_kq-21" target="L7-L8J1kp9Zc5vhTw_kq-22">
          <mxGeometry relative="1" as="geometry" />
        </mxCell>
        <mxCell id="L7-L8J1kp9Zc5vhTw_kq-21" value="b&amp;gt;a&amp;gt;c" style="rhombus;whiteSpace=wrap;html=1;" vertex="1" parent="1">
          <mxGeometry x="130" y="580" width="170" height="80" as="geometry" />
        </mxCell>
        <mxCell id="L7-L8J1kp9Zc5vhTw_kq-22" value="Print b lớn nhất&lt;br style=&quot;border-color: var(--border-color);&quot;&gt;Print c bé nhất" style="shape=parallelogram;perimeter=parallelogramPerimeter;whiteSpace=wrap;html=1;fixedSize=1;" vertex="1" parent="1">
          <mxGeometry x="370" y="590" width="170" height="60" as="geometry" />
        </mxCell>
        <mxCell id="L7-L8J1kp9Zc5vhTw_kq-29" value="" style="edgeStyle=orthogonalEdgeStyle;rounded=0;orthogonalLoop=1;jettySize=auto;html=1;" edge="1" parent="1" source="L7-L8J1kp9Zc5vhTw_kq-23" target="L7-L8J1kp9Zc5vhTw_kq-25">
          <mxGeometry relative="1" as="geometry" />
        </mxCell>
        <mxCell id="L7-L8J1kp9Zc5vhTw_kq-32" value="" style="edgeStyle=orthogonalEdgeStyle;rounded=0;orthogonalLoop=1;jettySize=auto;html=1;" edge="1" parent="1" source="L7-L8J1kp9Zc5vhTw_kq-23" target="L7-L8J1kp9Zc5vhTw_kq-24">
          <mxGeometry relative="1" as="geometry" />
        </mxCell>
        <mxCell id="L7-L8J1kp9Zc5vhTw_kq-23" value="c&amp;gt;a&amp;gt;b" style="rhombus;whiteSpace=wrap;html=1;" vertex="1" parent="1">
          <mxGeometry x="130" y="700" width="170" height="80" as="geometry" />
        </mxCell>
        <mxCell id="L7-L8J1kp9Zc5vhTw_kq-24" value="Print c lớn nhất&lt;br style=&quot;border-color: var(--border-color);&quot;&gt;Print b bé nhất" style="shape=parallelogram;perimeter=parallelogramPerimeter;whiteSpace=wrap;html=1;fixedSize=1;" vertex="1" parent="1">
          <mxGeometry x="370" y="710" width="170" height="60" as="geometry" />
        </mxCell>
        <mxCell id="L7-L8J1kp9Zc5vhTw_kq-31" value="" style="edgeStyle=orthogonalEdgeStyle;rounded=0;orthogonalLoop=1;jettySize=auto;html=1;" edge="1" parent="1" source="L7-L8J1kp9Zc5vhTw_kq-25" target="L7-L8J1kp9Zc5vhTw_kq-26">
          <mxGeometry relative="1" as="geometry" />
        </mxCell>
        <mxCell id="L7-L8J1kp9Zc5vhTw_kq-42" value="" style="edgeStyle=orthogonalEdgeStyle;rounded=0;orthogonalLoop=1;jettySize=auto;html=1;" edge="1" parent="1" source="L7-L8J1kp9Zc5vhTw_kq-25" target="L7-L8J1kp9Zc5vhTw_kq-41">
          <mxGeometry relative="1" as="geometry" />
        </mxCell>
        <mxCell id="L7-L8J1kp9Zc5vhTw_kq-25" value="c&amp;gt;b&amp;gt;a" style="rhombus;whiteSpace=wrap;html=1;" vertex="1" parent="1">
          <mxGeometry x="130" y="810" width="170" height="80" as="geometry" />
        </mxCell>
        <mxCell id="L7-L8J1kp9Zc5vhTw_kq-26" value="Print c lớn nhất&lt;br style=&quot;border-color: var(--border-color);&quot;&gt;Print a bé nhất" style="shape=parallelogram;perimeter=parallelogramPerimeter;whiteSpace=wrap;html=1;fixedSize=1;" vertex="1" parent="1">
          <mxGeometry x="360" y="820" width="170" height="60" as="geometry" />
        </mxCell>
        <mxCell id="L7-L8J1kp9Zc5vhTw_kq-34" value="Yes&lt;br&gt;" style="text;html=1;align=center;verticalAlign=middle;resizable=0;points=[];autosize=1;strokeColor=none;fillColor=none;" vertex="1" parent="1">
          <mxGeometry x="290" y="380" width="40" height="30" as="geometry" />
        </mxCell>
        <mxCell id="L7-L8J1kp9Zc5vhTw_kq-37" value="Yes&lt;br&gt;" style="text;html=1;align=center;verticalAlign=middle;resizable=0;points=[];autosize=1;strokeColor=none;fillColor=none;" vertex="1" parent="1">
          <mxGeometry x="320" y="710" width="40" height="30" as="geometry" />
        </mxCell>
        <mxCell id="L7-L8J1kp9Zc5vhTw_kq-38" value="Yes&lt;br&gt;" style="text;html=1;align=center;verticalAlign=middle;resizable=0;points=[];autosize=1;strokeColor=none;fillColor=none;" vertex="1" parent="1">
          <mxGeometry x="320" y="820" width="40" height="30" as="geometry" />
        </mxCell>
        <mxCell id="L7-L8J1kp9Zc5vhTw_kq-39" value="No" style="text;html=1;align=center;verticalAlign=middle;resizable=0;points=[];autosize=1;strokeColor=none;fillColor=none;" vertex="1" parent="1">
          <mxGeometry x="225" y="340" width="40" height="30" as="geometry" />
        </mxCell>
        <mxCell id="L7-L8J1kp9Zc5vhTw_kq-40" value="No" style="text;html=1;align=center;verticalAlign=middle;resizable=0;points=[];autosize=1;strokeColor=none;fillColor=none;" vertex="1" parent="1">
          <mxGeometry x="225" y="660" width="40" height="30" as="geometry" />
        </mxCell>
        <mxCell id="L7-L8J1kp9Zc5vhTw_kq-41" value="Print&lt;br&gt;Không thể hoàn thành so sánh,&lt;br&gt;&amp;nbsp;yêu cầu người dùng nhâp lại số" style="shape=parallelogram;perimeter=parallelogramPerimeter;whiteSpace=wrap;html=1;fixedSize=1;" vertex="1" parent="1">
          <mxGeometry x="90" y="930" width="250" height="90" as="geometry" />
        </mxCell>
      </root>
    </mxGraphModel>
  </diagram>
</mxfile>
